<?xml version="1.0" encoding="UTF-8" standalone="no"?>
<svg
   viewBox="0 0 24 24"
   version="1.1"
   id="svg4"
   sodipodi:docname="magnify.svg"
   inkscape:version="1.1.2 (0a00cf5339, 2022-02-04)"
   xmlns:inkscape="http://www.inkscape.org/namespaces/inkscape"
   xmlns:sodipodi="http://sodipodi.sourceforge.net/DTD/sodipodi-0.dtd"
   xmlns="http://www.w3.org/2000/svg"
   xmlns:svg="http://www.w3.org/2000/svg">
  <defs
     id="defs8" />
  <sodipodi:namedview
     id="namedview6"
     pagecolor="#ffffff"
     bordercolor="#666666"
     borderopacity="1.0"
     inkscape:pageshadow="2"
     inkscape:pageopacity="0.0"
     inkscape:pagecheckerboard="0"
     showgrid="false"
     inkscape:zoom="34.583333"
     inkscape:cx="12"
     inkscape:cy="12"
     inkscape:window-width="1920"
     inkscape:window-height="1008"
     inkscape:window-x="0"
     inkscape:window-y="0"
     inkscape:window-maximized="1"
     inkscape:current-layer="svg4" />
  <path
     d="m 9.7592173,3.3229769 a 6.5,6.5 0 0 1 6.4999997,6.5 c 0,1.6100001 -0.59,3.0900001 -1.56,4.2300001 l 0.27,0.27 h 0.79 l 5,5 -1.5,1.5 -5,-5 v -0.79 l -0.27,-0.27 c -1.14,0.97 -2.62,1.56 -4.2299997,1.56 a 6.5,6.5 0 0 1 -6.5,-6.5000001 6.5,6.5 0 0 1 6.5,-6.5 m 0,2 c -2.5,0 -4.5,2 -4.5,4.5 0,2.5000001 2,4.5000001 4.5,4.5000001 2.4999997,0 4.4999997,-2 4.4999997,-4.5000001 0,-2.5 -2,-4.5 -4.4999997,-4.5 z"
     id="path2"
     style="fill:#000000" />
</svg>
